<svg xmlns="http://www.w3.org/2000/svg" width="1179.456" height="1340.99" viewBox="0 0 393.152 446.997"><path fill="none" stroke="#1e1e1e" stroke-linecap="round" stroke-width="2" d="M38.26 99.492c-2.63 36.88-13.2 185.78-16.68 223.22m13.54-218.14c-2.84 35.99-12.9 177.65-14.97 213.52m1.101 5.132c30.05 19.19 148.58 94.45 179.34 112.43m-181.97-114.51c30.82 18.61 155.76 92.03 186.89 110.66m163.922-99.526c.88-32.29 8.39-162.94 9.5-195.2m-5.79 193.9c.6-32.1 4.75-159.98 4.91-191.58M40.083 99.683c11.71-5.38 54.31-23.42 65.06-27.72m-67.15 32.59c11.55-5.17 54.01-23.47 64.71-29.4"/><path fill="none" stroke="#1e1e1e" stroke-linecap="round" stroke-width="4" d="M104.58 73.925c30.95 52.95 157.26 263.5 188.54 316.12M100.94 71.025c30.26 52.31 156.57 260.93 189.43 314.62"/><path fill="none" stroke="#1e1e1e" stroke-linecap="round" stroke-width="2" d="M202.436 434.888c13.46-6.48 67.06-33.43 81.31-40.8m-76.62 38.95c14.39-7.3 68.65-36.78 82.04-43.58M132.372 51.97c10.08-7.06 51.36-35.77 61.35-41.97m-57.14 39.89c10.01-6.93 47.12-31.15 56.2-37.74"/><path fill="none" stroke="#1e1e1e" stroke-linecap="round" stroke-width="4" d="M136.818 48.702c20.72 33.53 100.38 171.21 120.11 204.6m-122.25-199.9c20.6 32.69 100.83 163.08 120.56 196.01"/><path fill="none" stroke="#1e1e1e" stroke-linecap="round" stroke-width="2" d="M193.29 14.517c24.53 16.28 123.65 77.19 148.56 92.91M190.4 13.167c23.87 16.81 123.73 80.32 148.83 96.71m2.878-1.827c-14.62 22.94-72.06 117.89-85.99 141.85m90.81-136.86c-15.06 23.16-78.14 117.75-92.94 140.07m122.345-115.085c-15.49 27.28-77.74 135.41-93.83 162.26m90.49-165.15c-15.57 26.62-75.47 132.92-91.33 160.77m1.233 4.748c6.04 9.31 28.09 45.26 33.85 53.9m-35.9-55.73c5.64 9.85 27.71 50.09 33.57 59.36m5.491 1.982c8.38-5.48 44.42-27.03 53.03-31.7m-56.57 29.23c7.82-5.29 45.83-21.71 54.64-26.74M30.761 118.674c-.69 18.59 1.63 73.76-.65 110.37-2.29 36.6-10.83 91.47-13.08 109.28m18.16-221.55c0 17.75 3.31 70.45.21 107.91s-15.98 98.09-18.84 116.85"/><path fill="none" stroke="#1e1e1e" stroke-linecap="round" stroke-width="2" d="M12.345 319.37c11.01 7.43 44.7 33.47 66.53 47.07s53.57 28.81 64.43 34.54m-133.3-76.67c10.47 7.71 43.8 32.55 66.95 44.57 23.16 12.02 60.83 23.07 71.97 27.54"/><path fill="none" stroke="#1e1e1e" stroke-linecap="round" stroke-width="4" d="M94.809 75.824c15.67 26.15 62.23 103.98 94.07 156.59 31.84 52.62 80.86 132.57 96.98 159.08M93.749 78.154c15.98 25.91 65.53 100.26 97.37 152.7 31.84 52.43 77.95 134.98 93.65 161.92M85.844 77.882c16.01 25.64 64.8 101.68 96.97 155.38 32.17 53.71 80.04 138.94 96.05 166.85M84.524 79.992c15.74 25.23 64.99 98.38 97.32 151.39 32.34 53 80.42 138.76 96.71 166.65"/><path fill="none" stroke="#1e1e1e" stroke-linecap="round" stroke-width="2" d="M198.953 436.992c15.08-6.93 75.28-33.23 90.18-40.53m-93.85 37.71c14.81-7.73 76.67-35.1 91.84-41.51"/><path fill="none" stroke="#1e1e1e" stroke-linecap="round" stroke-width="4" d="M142.669 49.376c11.1 16.18 47.34 61.71 67.02 94.84 19.67 33.13 43.24 87.14 51.05 103.92m-113.25-201.48c10.66 15.7 40.66 61.07 59.4 93.96 18.75 32.89 44.92 85.62 53.09 103.37"/><path fill="none" stroke="#1e1e1e" stroke-linecap="round" stroke-width="2" d="M192.506 12.657c12.87 6.63 53.31 28.25 78.7 44.51s61.87 43.79 73.63 53.06m-147.59-92.47c12.67 8.11 48.68 26.04 73.09 41.83s61.53 43.51 73.37 52.9m18.071 219.948c1.73-16.36 9.36-65.94 11.48-98.6s1.69-81.76 1.23-97.34m-8.19 194.85c1.32-16.2 3.23-62.44 4.44-94.64 1.2-32.21 2.94-83.06 2.79-98.6"/><path fill="none" stroke="#1e1e1e" stroke-linecap="round" stroke-width="2" d="M378.44 137.494c-16.34 26.02-80.42 128.35-96.28 155.01m100.99-156.11c-16.86 26.13-86.8 132.12-103.73 158.23m5.59 1.488c4.7 8.84 21.28 47.92 26.19 57.86m-28.44-53.12c5.58 8.88 28.75 45.7 33.86 55.28m29.109-262.059c-14.26 23.4-69.76 114.45-83.98 137.13m87.8-138.15c-14.52 23.88-74.6 118.21-89.85 141.42"/><path fill="none" stroke="#1e1e1e" stroke-linecap="round" stroke-width="2" d="M157.711 38.108c8.1 14.74 30.24 56.47 48.55 88.84s50.65 88.26 61.3 105.39m-113-196.45c8.9 14.99 36.97 60.46 56.78 93.76s52.14 89.12 62.1 106.04M30.999 113.786c11.56-4.98 58.96-24.76 70.04-30.06m-65.33 27.53c11.3-4.55 52.53-19.75 63.75-24.34"/><path fill="none" stroke="#1e1e1e" stroke-linecap="round" stroke-width="2" d="M44.446 105.088c-.06 18.29-.05 70.88-2.99 108.6-2.93 37.71-12.87 98.89-14.62 117.68m15.46-227.23c-.48 17.3-1.74 68.01-3.39 105.18-1.65 37.18-5.44 98.14-6.51 117.87"/><path fill="none" stroke="#1e1e1e" stroke-linecap="round" stroke-width="2" d="M23.235 313.822c31.1 18.08 155.52 91.56 186.56 110.55m-182.39-105.1c30.99 18.33 150.64 90.46 180.76 107.76m107.674-76.734c9.1-4.27 47.47-22.15 56.3-26.63m-52.37 23.68c8.94-4.88 41.89-22.82 51.05-27.58m5.373-181.144c-14.69 27.57-73.81 136.89-88.56 164.04m93.17-158.56c-15.02 27-80.04 127.61-95.93 154.4"/><path fill="none" stroke="#1e1e1e" stroke-linecap="round" stroke-width="2" d="M283.44 290.542c6.61 9.16 32.49 46.2 38.82 55.37m-34.58-57.54c6.52 8.18 27.3 42.9 32.59 53m14.118-238.592c-13.64 22.99-69.99 115.45-84.05 138.26m81.62-140.65c-13.97 22.11-69.88 112.68-83.87 136.41M142.266 55.508c9.22-7.01 46.58-34.01 55.6-40.97m-58.7 39.09c8.69-6.84 45.52-29.87 55.99-36.19"/><path fill="none" stroke="#1e1e1e" stroke-linecap="round" stroke-width="2" d="M159.677 50.437c8.59 15.04 34 61.48 50.24 90.5s39.34 70.03 47.22 83.62m-101.15-177.22c9.65 15.45 42.82 67.52 59.38 96.33 16.55 28.82 32.87 62.99 39.94 76.57"/><path fill="none" stroke="#1e1e1e" stroke-linecap="round" stroke-width="4" d="M81.643 82.213c16.95 26.53 69.98 105.46 103.91 157.92 33.93 52.47 83.12 130.84 99.67 156.88M83.213 81.483c17.27 26.73 71.17 106.98 104.7 159.81 33.53 52.84 80.34 131.19 96.49 157.2M153.667 51.427c7.36 16.13 29.72 65.81 48.95 97.43s55.25 76.59 66.42 92.31m-111.63-191.17c8.13 16.59 32.43 62.94 50.88 95.1 18.45 32.17 49.3 81.14 59.83 97.89M76.122 79c16.98 26.63 69.06 106.16 102.43 159.21 33.37 53.04 81.44 132.36 97.78 159.06M77.772 78.19c16.88 26.77 66.8 107.77 99.83 161.08s81.7 132.06 98.33 158.78"/></svg>