<svg viewBox="621.1696879329397 150 316.50635094610993 349.99999999999926" aria-description="Rhombus" width="316.50635094610993" height="349.99999999999926" xmlns="http://www.w3.org/2000/svg" style="font-family: &quot;Benton Sans&quot;, Helvetica, sans-serif; font-size: 18px; text-decoration: none solid rgb(58, 54, 69); color: rgb(58, 54, 69); text-anchor: middle; transform-origin: 768px 368.6px; white-space: normal; line-height: 28.8px; marker: none; stroke-linecap: round; stroke-linejoin: round;"><defs style="display: inline; transform-origin: 0px 0px;"><pattern id="square2-grid" x="0" y="0" width="50" height="50" patternUnits="userSpaceOnUse" style="transform-origin: 0px 0px;"><rect x="0" y="0" width="50" height="50" opacity="0.4" style="opacity: 0.4; transform-origin: 0px 0px; fill: none; stroke: rgb(24, 24, 36);"/></pattern><pattern id="square-dots" x="-4" y="-4" width="25" height="25" patternUnits="userSpaceOnUse" style="transform-origin: 0px 0px;"><circle cx="4" cy="4" r="2" opacity="0.6" style="opacity: 0.6; transform-origin: 2px 2px; fill: rgb(24, 24, 36); transform-box: fill-box;"/></pattern><pattern id="square-grid" x="0" y="0" width="125" height="125" patternUnits="userSpaceOnUse" style="transform-origin: 0px 0px;"><g opacity="0.4" style="opacity: 0.4; transform-origin: 62.5px 62.5px; transform-box: fill-box;"><line x1="25" y1="0" x2="25" y2="125" style="opacity: 1; transform-origin: 0px 62.5px; fill: none; stroke: rgb(24, 24, 36); transform-box: fill-box;"/><line x1="0" y1="25" x2="125" y2="25" style="opacity: 1; transform-origin: 62.5px 0px; fill: none; stroke: rgb(24, 24, 36); transform-box: fill-box;"/><line x1="50" y1="0" x2="50" y2="125" style="opacity: 1; transform-origin: 0px 62.5px; fill: none; stroke: rgb(24, 24, 36); transform-box: fill-box;"/><line x1="0" y1="50" x2="125" y2="50" style="opacity: 1; transform-origin: 62.5px 0px; fill: none; stroke: rgb(24, 24, 36); transform-box: fill-box;"/><line x1="75" y1="0" x2="75" y2="125" style="opacity: 1; transform-origin: 0px 62.5px; fill: none; stroke: rgb(24, 24, 36); transform-box: fill-box;"/><line x1="0" y1="75" x2="125" y2="75" style="opacity: 1; transform-origin: 62.5px 0px; fill: none; stroke: rgb(24, 24, 36); transform-box: fill-box;"/><line x1="100" y1="0" x2="100" y2="125" style="opacity: 1; transform-origin: 0px 62.5px; fill: none; stroke: rgb(24, 24, 36); transform-box: fill-box;"/><line x1="0" y1="100" x2="125" y2="100" style="opacity: 1; transform-origin: 62.5px 0px; fill: none; stroke: rgb(24, 24, 36); transform-box: fill-box;"/></g><rect x="0" y="0" width="125" height="125" style="transform-origin: 0px 0px; fill: none; stroke: rgb(24, 24, 36);"/></pattern><pattern id="tri-dots" x="0" y="-4" width="25" height="43.302" patternUnits="userSpaceOnUse" style="transform-origin: 0px 0px;"><circle cx="0" cy="4" r="2" opacity="0.6" style="opacity: 0.6; transform-origin: 2px 2px; fill: rgb(24, 24, 36); transform-box: fill-box;"/><circle cx="25" cy="4" r="2" opacity="0.6" style="opacity: 0.6; transform-origin: 2px 2px; fill: rgb(24, 24, 36); transform-box: fill-box;"/><circle cx="12.5" cy="25.651" r="2" opacity="0.6" style="opacity: 0.6; transform-origin: 2px 2px; fill: rgb(24, 24, 36); transform-box: fill-box;"/></pattern><pattern id="tri-grid" x="0" y="0" width="25" height="43.302" patternUnits="userSpaceOnUse" style="transform-origin: 0px 0px;"><g opacity="0.4" style="opacity: 0.4; transform-origin: 12.5px 21.651px; transform-box: fill-box;"><line x1="0" y1="0" x2="25" y2="0" style="opacity: 1; transform-origin: 12.5px 0px; fill: none; stroke: rgb(24, 24, 36); transform-box: fill-box;"/><line x1="0" y1="21.651" x2="25" y2="21.651" style="opacity: 1; transform-origin: 12.5px 0px; fill: none; stroke: rgb(24, 24, 36); transform-box: fill-box;"/><line x1="0" y1="43.302" x2="25" y2="43.302" style="opacity: 1; transform-origin: 12.5px 0px; fill: none; stroke: rgb(24, 24, 36); transform-box: fill-box;"/><line x1="0" y1="0" x2="25" y2="43.302" style="opacity: 1; transform-origin: 12.5px 21.651px; fill: none; stroke: rgb(24, 24, 36); transform-box: fill-box;"/><line x1="25" y1="0" x2="0" y2="43.302" style="opacity: 1; transform-origin: 12.5px 21.651px; fill: none; stroke: rgb(24, 24, 36); transform-box: fill-box;"/></g></pattern><pattern id="tri2-dots" x="-4" y="0" width="43.302" height="25" patternUnits="userSpaceOnUse" style="transform-origin: 0px 0px;"><circle cx="4" cy="0" r="2" opacity="0.6" style="opacity: 0.6; transform-origin: 2px 2px; fill: rgb(24, 24, 36); transform-box: fill-box;"/><circle cx="4" cy="25" r="2" opacity="0.6" style="opacity: 0.6; transform-origin: 2px 2px; fill: rgb(24, 24, 36); transform-box: fill-box;"/><circle cx="25.651" cy="12.5" r="2" opacity="0.6" style="opacity: 0.6; transform-origin: 2px 2px; fill: rgb(24, 24, 36); transform-box: fill-box;"/></pattern><pattern id="tri2-grid" x="0" y="0" width="43.302" height="25" patternUnits="userSpaceOnUse" style="transform-origin: 0px 0px;"><g opacity="0.4" style="opacity: 0.4; transform-origin: 21.651px 12.5px; transform-box: fill-box;"><line x1="0" y1="0" x2="0" y2="25" style="opacity: 1; transform-origin: 0px 12.5px; fill: none; stroke: rgb(24, 24, 36); transform-box: fill-box;"/><line x1="21.651" y1="0" x2="21.651" y2="25" style="opacity: 1; transform-origin: 0px 12.5px; fill: none; stroke: rgb(24, 24, 36); transform-box: fill-box;"/><line x1="43.302" y1="0" x2="43.302" y2="25" style="opacity: 1; transform-origin: 0px 12.5px; fill: none; stroke: rgb(24, 24, 36); transform-box: fill-box;"/><line x1="0" y1="0" x2="43.302" y2="25" style="opacity: 1; transform-origin: 21.651px 12.5px; fill: none; stroke: rgb(24, 24, 36); transform-box: fill-box;"/><line x1="0" y1="25" x2="43.302" y2="0" style="opacity: 1; transform-origin: 21.651px 12.5px; fill: none; stroke: rgb(24, 24, 36); transform-box: fill-box;"/></g></pattern><pattern id="square-checked" x="0" y="0" width="50" height="50" patternUnits="userSpaceOnUse" style="transform-origin: 0px 0px;"><rect x="0" y="0" width="25" height="25" opacity="0.4" style="opacity: 0.4; transform-origin: 0px 0px; fill: rgb(24, 24, 36);"/><rect x="25" y="25" width="25" height="25" opacity="0.4" style="opacity: 0.4; transform-origin: 0px 0px; fill: rgb(24, 24, 36);"/></pattern><radialGradient id="sphere-gradient" cx="65%" cy="35%" r="65%" style="transform-origin: 0px 0px;"><stop offset="0" stop-color="white" stop-opacity="0.3" style="transform-origin: 0px 0px;"/><stop offset="0.32" stop-color="white" stop-opacity="0" style="transform-origin: 0px 0px;"/><stop offset="0.33" stop-opacity="0" style="transform-origin: 0px 0px;"/><stop offset="1" stop-opacity="0.2" style="transform-origin: 0px 0px;"/></radialGradient><linearGradient id="card-gradient" style="transform-origin: 0px 0px;"><stop offset="0" stop-color="#999" style="transform-origin: 0px 0px;"/><stop offset="0.08" stop-color="#bbb" style="transform-origin: 0px 0px;"/><stop offset="0.92" stop-color="#bbb" style="transform-origin: 0px 0px;"/><stop offset="1" stop-color="#999" style="transform-origin: 0px 0px;"/></linearGradient><filter id="handdrawn" x="-20%" y="-20%" width="140%" height="140%" style="transform-origin: 0px 0px;"><feTurbulence type="fractalNoise" baseFrequency="0.004 0.004" numOctaves="26" stitchTiles="stitch" result="turbulence" style="transform-origin: 0px 0px;"/><feDisplacementMap in="SourceGraphic" in2="turbulence" scale="20" xChannelSelector="R" yChannelSelector="G" result="displacementMap" style="transform-origin: 0px 0px;"/></filter><filter id="pencil" x="-10%" y="-10%" width="110%" height="110%" filterUnits="objectBoundingBox" style="transform-origin: 0px 0px;"><feTurbulence type="fractalNoise" baseFrequency="1.2" numOctaves="3" result="noise" style="transform-origin: 0px 0px;"/><feDisplacementMap xChannelSelector="R" yChannelSelector="G" scale="2" in="SourceGraphic" result="newSource" style="transform-origin: 0px 0px;"/></filter><filter id="outline" style="transform-origin: 0px 0px;"><feMorphology in="SourceAlpha" result="DILATED" operator="dilate" radius="1.2" style="transform-origin: 0px 0px;"/><feFlood flood-color="var(--canvas-bg)" flood-opacity="1" result="WHITE" style="transform-origin: 0px 0px;"/><feComposite in="WHITE" in2="DILATED" operator="in" result="OUTLINE" style="transform-origin: 0px 0px;"/><feMerge style="transform-origin: 0px 0px;"><feMergeNode in="OUTLINE" style="transform-origin: 0px 0px;"/><feMergeNode in="SourceGraphic" style="transform-origin: 0px 0px;"/></feMerge></filter><symbol id="suit-c" viewBox="-12 -12 24 24" width="24" height="24" x="-12" y="-12" style="transform-origin: 0px 0px;"><path d="m0-10c2.3.1 4.2 1.9 4.3 4.2 0 1.6-.9 3-2.3 3.8.8-.3 1.6-.5 2.5-.5 2.4-.1 4.4 1.7 4.5 4.1v.2c0 2.3-1.9 4.2-4.2 4.2-.1 0-.2 0-.3 0-1.2-.1-2.4-.4-3.5-1 0 0-.3 2 2 5h-6c2.3-3 2-5 2-5-1.1.6-2.3.9-3.5 1-2.3.2-4.3-1.6-4.5-3.9 0-.1 0-.2 0-.3 0-2.4 1.9-4.3 4.3-4.3h.2c.9 0 1.7.2 2.5.5-1.4-.8-2.3-2.2-2.3-3.8.1-2.3 2-4.1 4.3-4.2z" style="transform-origin: 9px 10px; transform-box: fill-box;"/></symbol><symbol id="suit-s" viewBox="-12 -12 24 24" width="24" height="24" x="-12" y="-12" style="transform-origin: 0px 0px;"><path d="m0-10c-3 5-8 7-8 12 .1 2.1 1.9 3.9 4 4 1.1.1 2.2-.2 3-1 0 0 .3 2-2 5h6c-2-3-2-5-2-5 .8.8 1.9 1.1 3 1 2.1-.1 3.9-1.9 4-4 0-5-5-7-8-12z" style="transform-origin: 8px 10px; transform-box: fill-box;"/></symbol><symbol id="suit-h" viewBox="-12 -12 24 24" width="24" height="24" x="-12" y="-12" style="transform-origin: 0px 0px;"><path d="m0 8.5-1.3-1.3c-4.6-4.1-7.7-6.9-7.7-10.3-.1-2.7 2.1-4.9 4.8-5h.2c1.5 0 3.1.7 4 1.9 1-1.2 2.5-1.9 4-1.9 2.8-.1 4.9 2.1 5 4.8v.2c0 3.4-3.1 6.2-7.7 10.3z" style="transform-origin: 9.00164px 8.30164px; transform-box: fill-box;"/></symbol><symbol id="suit-d" viewBox="-12 -12 24 24" width="24" height="24" x="-12" y="-12" style="transform-origin: 0px 0px;"><path d="m7 0-7 10-7-10 7-10" style="transform-origin: 7px 10px; transform-box: fill-box;"/></symbol><pattern id="card-bg" width="6" height="8" patternUnits="userSpaceOnUse" style="transform-origin: 0px 0px;"><rect width="6" height="8" fill="#0f82f2" style="transform-origin: 0px 0px; fill: rgb(15, 130, 242);"/><line x2="6" y2="8" stroke="#eee" stroke-width="1" style="transform-origin: 3px 4px; stroke: rgb(238, 238, 238); transform-box: fill-box;"/><line x1="6" y2="8" stroke="#eee" stroke-width="1" style="transform-origin: 3px 4px; stroke: rgb(238, 238, 238); transform-box: fill-box;"/></pattern></defs><rect x="-215.72901748389245" y="-9.000019192695845" width="1536" height="737" fill="none" style="display: inline; opacity: 0.25; transform-origin: 0px 0px; fill: none;"/><g style="display: inline; transform-origin: 129.901px 137.5px; transform-box: fill-box;"><g transform="translate(692.8000000000001 275) rotate(150.00000000000003) " style="transform: matrix(-0.866025, 0.5, -0.5, -0.866025, 692.8, 275); transform-origin: 0px 0px; transform-box: view-box;"><path fill="#77777740" d="M-37.5,21.650635094610966L12.5,21.650635094610966L37.5,-21.650635094610966L-12.5,-21.650635094610966Z" style="transform: none; transform-origin: 37.5px 21.6506px; fill: rgba(119, 119, 119, 0.25); stroke: rgb(255, 255, 255); transform-box: fill-box;"/></g><g transform="translate(692.8000000000001 325) rotate(150.00000000000003) " style="transform: matrix(-0.866025, 0.5, -0.5, -0.866025, 692.8, 325); transform-origin: 0px 0px; transform-box: view-box;"><path fill="#77777740" d="M-37.5,21.650635094610966L12.5,21.650635094610966L37.5,-21.650635094610966L-12.5,-21.650635094610966Z" style="transform: none; transform-origin: 37.5px 21.6506px; fill: rgba(119, 119, 119, 0.25); stroke: rgb(255, 255, 255); transform-box: fill-box;"/></g><g transform="translate(736.1 250) rotate(150.00000000000003) " style="transform: matrix(-0.866025, 0.5, -0.5, -0.866025, 736.1, 250); transform-origin: 0px 0px; transform-box: view-box;"><path fill="#77777740" d="M-37.5,21.650635094610966L12.5,21.650635094610966L37.5,-21.650635094610966L-12.5,-21.650635094610966Z" style="transform: none; transform-origin: 37.5px 21.6506px; fill: rgba(119, 119, 119, 0.25); stroke: rgb(255, 255, 255); transform-box: fill-box;"/></g><g transform="translate(866 325) rotate(210) " style="transform: matrix(-0.866025, -0.5, 0.5, -0.866025, 866, 325); transform-origin: 0px 0px; transform-box: view-box;"><path fill="#77777740" d="M37.5,21.650635094610966L-12.5,21.650635094610966L-37.5,-21.650635094610966L12.5,-21.650635094610966Z" style="transform: none; transform-origin: 37.5px 21.6506px; fill: rgba(119, 119, 119, 0.25); stroke: rgb(255, 255, 255); transform-box: fill-box;"/></g><g transform="translate(866 275) rotate(210) " style="transform: matrix(-0.866025, -0.5, 0.5, -0.866025, 866, 275); transform-origin: 0px 0px; transform-box: view-box;"><path fill="#77777740" d="M37.5,21.650635094610966L-12.5,21.650635094610966L-37.5,-21.650635094610966L12.5,-21.650635094610966Z" style="transform: none; transform-origin: 37.5px 21.6506px; fill: rgba(119, 119, 119, 0.25); stroke: rgb(255, 255, 255); transform-box: fill-box;"/></g><g transform="translate(822.7 250) rotate(210) " style="transform: matrix(-0.866025, -0.5, 0.5, -0.866025, 822.7, 250); transform-origin: 0px 0px; transform-box: view-box;"><path fill="#77777740" d="M37.5,21.650635094610966L-12.5,21.650635094610966L-37.5,-21.650635094610966L12.5,-21.650635094610966Z" style="transform: none; transform-origin: 37.5px 21.6506px; fill: rgba(119, 119, 119, 0.25); stroke: rgb(255, 255, 255); transform-box: fill-box;"/></g><g transform="translate(779.4000000000001 425) rotate(150.00000000000003) " style="transform: matrix(-0.866025, 0.5, -0.5, -0.866025, 779.4, 425); transform-origin: 0px 0px; transform-box: view-box;"><path fill="#77777740" d="M37.5,21.650635094610966L-12.5,21.650635094610966L-37.5,-21.650635094610966L12.5,-21.650635094610966Z" style="transform: none; transform-origin: 37.5px 21.6506px; fill: rgba(119, 119, 119, 0.25); stroke: rgb(255, 255, 255); transform-box: fill-box;"/></g><g transform="translate(822.7 400) rotate(150.00000000000003) " style="transform: matrix(-0.866025, 0.5, -0.5, -0.866025, 822.7, 400); transform-origin: 0px 0px; transform-box: view-box;"><path fill="#77777740" d="M37.5,21.650635094610966L-12.5,21.650635094610966L-37.5,-21.650635094610966L12.5,-21.650635094610966Z" style="transform: none; transform-origin: 37.5px 21.6506px; fill: rgba(119, 119, 119, 0.25); stroke: rgb(255, 255, 255); transform-box: fill-box;"/></g><g transform="translate(736.1 400) rotate(150.00000000000003) " style="transform: matrix(-0.866025, 0.5, -0.5, -0.866025, 736.1, 400); transform-origin: 0px 0px; transform-box: view-box;"><path fill="#77777740" d="M37.5,21.650635094610966L-12.5,21.650635094610966L-37.5,-21.650635094610966L12.5,-21.650635094610966Z" style="transform: none; transform-origin: 37.5px 21.6506px; fill: rgba(119, 119, 119, 0.25); stroke: rgb(255, 255, 255); transform-box: fill-box;"/></g><g transform="translate(779.4000000000001 225) rotate(150.00000000000003) " style="transform: matrix(-0.866025, 0.5, -0.5, -0.866025, 779.4, 225); transform-origin: 0px 0px; transform-box: view-box;"><path fill="#77777740" d="M37.5,21.650635094610966L-12.5,21.650635094610966L-37.5,-21.650635094610966L12.5,-21.650635094610966Z" style="transform: none; transform-origin: 37.5px 21.6506px; fill: rgba(119, 119, 119, 0.25); stroke: rgb(255, 255, 255); transform-box: fill-box;"/></g><g transform="translate(822.7 250) rotate(150.00000000000003) " style="transform: matrix(-0.866025, 0.5, -0.5, -0.866025, 822.7, 250); transform-origin: 0px 0px; transform-box: view-box;"><path fill="#77777740" d="M37.5,21.650635094610966L-12.5,21.650635094610966L-37.5,-21.650635094610966L12.5,-21.650635094610966Z" style="transform: none; transform-origin: 37.5px 21.6506px; fill: rgba(119, 119, 119, 0.25); stroke: rgb(255, 255, 255); transform-box: fill-box;"/></g><g transform="translate(736.1 250) rotate(150.00000000000003) " style="transform: matrix(-0.866025, 0.5, -0.5, -0.866025, 736.1, 250); transform-origin: 0px 0px; transform-box: view-box;"><path fill="#77777740" d="M37.5,21.650635094610966L-12.5,21.650635094610966L-37.5,-21.650635094610966L12.5,-21.650635094610966Z" style="transform: none; transform-origin: 37.5px 21.6506px; fill: rgba(119, 119, 119, 0.25); stroke: rgb(255, 255, 255); transform-box: fill-box;"/></g><g transform="translate(866 375) rotate(90) " style="transform: matrix(0, 1, -1, 0, 866, 375); transform-origin: 0px 0px; transform-box: view-box;"><path fill="#77777740" d="M37.5,21.650635094610966L-12.5,21.650635094610966L-37.5,-21.650635094610966L12.5,-21.650635094610966Z" style="transform: none; transform-origin: 37.5px 21.6506px; fill: rgba(119, 119, 119, 0.25); stroke: rgb(255, 255, 255); transform-box: fill-box;"/></g><g transform="translate(866 325) rotate(90) " style="transform: matrix(0, 1, -1, 0, 866, 325); transform-origin: 0px 0px; transform-box: view-box;"><path fill="#77777740" d="M37.5,21.650635094610966L-12.5,21.650635094610966L-37.5,-21.650635094610966L12.5,-21.650635094610966Z" style="transform: none; transform-origin: 37.5px 21.6506px; fill: rgba(119, 119, 119, 0.25); stroke: rgb(255, 255, 255); transform-box: fill-box;"/></g><g transform="translate(822.7 400) rotate(90) " style="transform: matrix(0, 1, -1, 0, 822.7, 400); transform-origin: 0px 0px; transform-box: view-box;"><path fill="#77777740" d="M37.5,21.650635094610966L-12.5,21.650635094610966L-37.5,-21.650635094610966L12.5,-21.650635094610966Z" style="transform: none; transform-origin: 37.5px 21.6506px; fill: rgba(119, 119, 119, 0.25); stroke: rgb(255, 255, 255); transform-box: fill-box;"/></g><g transform="translate(692.8000000000001 375) rotate(270) " style="transform: matrix(0, -1, 1, 0, 692.8, 375); transform-origin: 0px 0px; transform-box: view-box;"><path fill="#77777740" d="M-37.5,21.650635094610966L12.5,21.650635094610966L37.5,-21.650635094610966L-12.5,-21.650635094610966Z" style="transform: none; transform-origin: 37.5px 21.6506px; fill: rgba(119, 119, 119, 0.25); stroke: rgb(255, 255, 255); transform-box: fill-box;"/></g><g transform="translate(692.8000000000001 325) rotate(270) " style="transform: matrix(0, -1, 1, 0, 692.8, 325); transform-origin: 0px 0px; transform-box: view-box;"><path fill="#77777740" d="M-37.5,21.650635094610966L12.5,21.650635094610966L37.5,-21.650635094610966L-12.5,-21.650635094610966Z" style="transform: none; transform-origin: 37.5px 21.6506px; fill: rgba(119, 119, 119, 0.25); stroke: rgb(255, 255, 255); transform-box: fill-box;"/></g><g transform="translate(736.1 400) rotate(270) " style="transform: matrix(0, -1, 1, 0, 736.1, 400); transform-origin: 0px 0px; transform-box: view-box;"><path fill="#77777740" d="M-37.5,21.650635094610966L12.5,21.650635094610966L37.5,-21.650635094610966L-12.5,-21.650635094610966Z" style="transform: none; transform-origin: 37.5px 21.6506px; fill: rgba(119, 119, 119, 0.25); stroke: rgb(255, 255, 255); transform-box: fill-box;"/></g><g transform="translate(822.7 300) rotate(210) " style="transform: matrix(-0.866025, -0.5, 0.5, -0.866025, 822.7, 300); transform-origin: 0px 0px; transform-box: view-box;"><path fill="#22ab2480" d="M37.5,21.650635094610966L-12.5,21.650635094610966L-37.5,-21.650635094610966L12.5,-21.650635094610966Z" style="transform: none; transform-origin: 37.5px 21.6506px; fill: rgba(34, 171, 36, 0.5); stroke: rgb(255, 255, 255); transform-box: fill-box;"/></g><g transform="translate(779.4000000000001 375) rotate(150.00000000000003) " style="transform: matrix(-0.866025, 0.5, -0.5, -0.866025, 779.4, 375); transform-origin: 0px 0px; transform-box: view-box;"><path fill="#fd8c0080" d="M37.5,21.650635094610966L-12.5,21.650635094610966L-37.5,-21.650635094610966L12.5,-21.650635094610966Z" style="transform: none; transform-origin: 37.5px 21.6506px; fill: rgba(253, 140, 0, 0.5); stroke: rgb(255, 255, 255); transform-box: fill-box;"/></g><g transform="translate(801.1 337.5) rotate(90) " style="transform: matrix(0, 1, -1, 0, 801.1, 337.5); transform-origin: 0px 0px; transform-box: view-box;"><path fill="#0f82f2" d="M37.5,21.650635094610966L-12.5,21.650635094610966L-37.5,-21.650635094610966L12.5,-21.650635094610966Z" style="transform: none; transform-origin: 37.5px 21.6506px; fill: rgb(15, 130, 242); stroke: rgb(255, 255, 255); transform-box: fill-box;"/></g><g transform="translate(736.1 300) rotate(90) " style="transform: matrix(0, 1, -1, 0, 736.1, 300); transform-origin: 0px 0px; transform-box: view-box;"><path fill="#eb342680" d="M37.5,21.650635094610966L-12.5,21.650635094610966L-37.5,-21.650635094610966L12.5,-21.650635094610966Z" style="transform: none; transform-origin: 37.5px 21.6506px; fill: rgba(235, 52, 38, 0.5); stroke: rgb(255, 255, 255); transform-box: fill-box;"/></g><g transform="translate(779.4000000000001 300) rotate(329.99999999999994) " style="transform: matrix(0.866025, -0.5, 0.5, 0.866025, 779.4, 300); transform-origin: 0px 0px; transform-box: view-box;"><path fill="#0f82f2" d="M37.5,21.650635094610966L-12.5,21.650635094610966L-37.5,-21.650635094610966L12.5,-21.650635094610966Z" style="transform: none; transform-origin: 37.5px 21.6506px; fill: rgb(15, 130, 242); stroke: rgb(255, 255, 255); transform-box: fill-box;"/></g><g transform="translate(757.8000000000001 337.5) rotate(270) " style="transform: matrix(0, -1, 1, 0, 757.8, 337.5); transform-origin: 0px 0px; transform-box: view-box;"><path d="M-37.5,21.650635094610966L12.5,21.650635094610966L37.5,-21.650635094610966L-12.5,-21.650635094610966Z" fill="#0f82f2" style="transform: none; transform-origin: 37.5px 21.6506px; fill: rgb(15, 130, 242); stroke: rgb(255, 255, 255); transform-box: fill-box;"/></g><g transform="translate(779.4000000000001 275) rotate(150.00000000000003) " style="transform: matrix(-0.866025, 0.5, -0.5, -0.866025, 779.4, 275); transform-origin: 0px 0px; transform-box: view-box;"><path fill="#fd8c0080" d="M37.5,21.650635094610966L-12.5,21.650635094610966L-37.5,-21.650635094610966L12.5,-21.650635094610966Z" style="transform: none; transform-origin: 37.5px 21.6506px; fill: rgba(253, 140, 0, 0.5); stroke: rgb(255, 255, 255); transform-box: fill-box;"/></g><g transform="translate(736.1 350) rotate(270) " style="transform: matrix(0, -1, 1, 0, 736.1, 350); transform-origin: 0px 0px; transform-box: view-box;"><path fill="#22ab2480" d="M-37.5,21.650635094610966L12.5,21.650635094610966L37.5,-21.650635094610966L-12.5,-21.650635094610966Z" style="transform: none; transform-origin: 37.5px 21.6506px; fill: rgba(34, 171, 36, 0.5); stroke: rgb(255, 255, 255); transform-box: fill-box;"/></g><g transform="translate(822.7 350) rotate(90) " style="transform: matrix(0, 1, -1, 0, 822.7, 350); transform-origin: 0px 0px; transform-box: view-box;"><path fill="#eb342680" d="M37.5,21.650635094610966L-12.5,21.650635094610966L-37.5,-21.650635094610966L12.5,-21.650635094610966Z" style="transform: none; transform-origin: 37.5px 21.6506px; fill: rgba(235, 52, 38, 0.5); stroke: rgb(255, 255, 255); transform-box: fill-box;"/></g></g><path d="" style="display: inline; transform-origin: 0px 0px; fill: none; stroke: rgb(255, 255, 255); stroke-width: 7px; transform-box: fill-box;"/><path d="" style="display: inline; transform-origin: 0px 0px; fill: none; stroke: rgb(15, 130, 242); stroke-width: 3px; transform-box: fill-box;"/></svg>