<svg xmlns="http://www.w3.org/2000/svg" width="316.506" height="350" aria-description="Rhombus" style="font-family:&quot;Benton Sans&quot;,Helvetica,sans-serif;font-size:18px;text-decoration:none solid #3a3645;color:#3a3645;text-anchor:middle;transform-origin:768px 368.6px;white-space:normal;line-height:28.8px;marker:none;stroke-linecap:round;stroke-linejoin:round" viewBox="621.17 150 316.506 350"><path fill="none" d="M-215.729-9h1536v737h-1536z" style="display:inline;opacity:.25;transform-origin:0 0;fill:none"/><g style="display:inline;transform-origin:129.901px 137.5px;transform-box:fill-box"><g style="transform:matrix(-.866025,.5,-.5,-.866025,692.8,275);transform-origin:0 0;transform-box:view-box"><path fill="#77777740" d="M-37.5 21.65h50l25-43.3h-50Z" style="transform:none;transform-origin:37.5px 21.6506px;fill:rgba(119,119,119,.25);stroke:#fff;transform-box:fill-box" transform="rotate(150 309.557 230.318)"/></g><g style="transform:matrix(-.866025,.5,-.5,-.866025,692.8,325);transform-origin:0 0;transform-box:view-box"><path fill="#77777740" d="M-37.5 21.65h50l25-43.3h-50Z" style="transform:none;transform-origin:37.5px 21.6506px;fill:rgba(119,119,119,.25);stroke:#fff;transform-box:fill-box" transform="rotate(150 302.858 255.318)"/></g><g style="transform:matrix(-.866025,.5,-.5,-.866025,736.1,250);transform-origin:0 0;transform-box:view-box"><path fill="#77777740" d="M-37.5 21.65h50l25-43.3h-50Z" style="transform:none;transform-origin:37.5px 21.6506px;fill:rgba(119,119,119,.25);stroke:#fff;transform-box:fill-box" transform="rotate(150 334.556 223.619)"/></g><g style="transform:matrix(-.866025,-.5,.5,-.866025,866,325);transform-origin:0 0;transform-box:view-box"><path fill="#77777740" d="M37.5 21.65h-50l-25-43.3h50Z" style="transform:none;transform-origin:37.5px 21.6506px;fill:rgba(119,119,119,.25);stroke:#fff;transform-box:fill-box" transform="rotate(-150 476.542 46.478)"/></g><g style="transform:matrix(-.866025,-.5,.5,-.866025,866,275);transform-origin:0 0;transform-box:view-box"><path fill="#77777740" d="M37.5 21.65h-50l-25-43.3h50Z" style="transform:none;transform-origin:37.5px 21.6506px;fill:rgba(119,119,119,.25);stroke:#fff;transform-box:fill-box" transform="rotate(-150 469.843 21.478)"/></g><g style="transform:matrix(-.866025,-.5,.5,-.866025,822.7,250);transform-origin:0 0;transform-box:view-box"><path fill="#77777740" d="M37.5 21.65h-50l-25-43.3h50Z" style="transform:none;transform-origin:37.5px 21.6506px;fill:rgba(119,119,119,.25);stroke:#fff;transform-box:fill-box" transform="rotate(-150 444.844 14.78)"/></g><g style="transform:matrix(-.866025,.5,-.5,-.866025,779.4,425);transform-origin:0 0;transform-box:view-box"><path fill="#77777740" d="M37.5 21.65h-50l-25-43.3h50Z" style="transform:none;transform-origin:37.5px 21.6506px;fill:rgba(119,119,119,.25);stroke:#fff;transform-box:fill-box" transform="rotate(150 332.76 316.92)"/></g><g style="transform:matrix(-.866025,.5,-.5,-.866025,822.7,400);transform-origin:0 0;transform-box:view-box"><path fill="#77777740" d="M37.5 21.65h-50l-25-43.3h50Z" style="transform:none;transform-origin:37.5px 21.6506px;fill:rgba(119,119,119,.25);stroke:#fff;transform-box:fill-box" transform="rotate(150 357.76 310.22)"/></g><g style="transform:matrix(-.866025,.5,-.5,-.866025,736.1,400);transform-origin:0 0;transform-box:view-box"><path fill="#77777740" d="M37.5 21.65h-50l-25-43.3h50Z" style="transform:none;transform-origin:37.5px 21.6506px;fill:rgba(119,119,119,.25);stroke:#fff;transform-box:fill-box" transform="rotate(150 314.46 298.619)"/></g><g style="transform:matrix(-.866025,.5,-.5,-.866025,779.4,225);transform-origin:0 0;transform-box:view-box"><path fill="#77777740" d="M37.5 21.65h-50l-25-43.3h50Z" style="transform:none;transform-origin:37.5px 21.6506px;fill:rgba(119,119,119,.25);stroke:#fff;transform-box:fill-box" transform="rotate(150 359.556 216.92)"/></g><g style="transform:matrix(-.866025,.5,-.5,-.866025,822.7,250);transform-origin:0 0;transform-box:view-box"><path fill="#77777740" d="M37.5 21.65h-50l-25-43.3h50Z" style="transform:none;transform-origin:37.5px 21.6506px;fill:rgba(119,119,119,.25);stroke:#fff;transform-box:fill-box" transform="rotate(150 377.856 235.22)"/></g><g style="transform:matrix(-.866025,.5,-.5,-.866025,736.1,250);transform-origin:0 0;transform-box:view-box"><path fill="#77777740" d="M37.5 21.65h-50l-25-43.3h50Z" style="transform:none;transform-origin:37.5px 21.6506px;fill:rgba(119,119,119,.25);stroke:#fff;transform-box:fill-box" transform="rotate(150 334.556 223.619)"/></g><g style="transform:matrix(0,1,-1,0,866,375);transform-origin:0 0;transform-box:view-box"><path fill="#77777740" d="M37.5 21.65h-50l-25-43.3h50Z" style="transform:none;transform-origin:37.5px 21.6506px;fill:rgba(119,119,119,.25);stroke:#fff;transform-box:fill-box" transform="rotate(90 245.5 620.5)"/></g><g style="transform:matrix(0,1,-1,0,866,325);transform-origin:0 0;transform-box:view-box"><path fill="#77777740" d="M37.5 21.65h-50l-25-43.3h50Z" style="transform:none;transform-origin:37.5px 21.6506px;fill:rgba(119,119,119,.25);stroke:#fff;transform-box:fill-box" transform="rotate(90 270.5 595.5)"/></g><g style="transform:matrix(0,1,-1,0,822.7,400);transform-origin:0 0;transform-box:view-box"><path fill="#77777740" d="M37.5 21.65h-50l-25-43.3h50Z" style="transform:none;transform-origin:37.5px 21.6506px;fill:rgba(119,119,119,.25);stroke:#fff;transform-box:fill-box" transform="rotate(90 211.35 611.35)"/></g><g style="transform:matrix(0,-1,1,0,692.8,375);transform-origin:0 0;transform-box:view-box"><path fill="#77777740" d="M-37.5 21.65h50l25-43.3h-50Z" style="transform:none;transform-origin:37.5px 21.6506px;fill:rgba(119,119,119,.25);stroke:#fff;transform-box:fill-box" transform="rotate(-90 533.9 -158.9)"/></g><g style="transform:matrix(0,-1,1,0,692.8,325);transform-origin:0 0;transform-box:view-box"><path fill="#77777740" d="M-37.5 21.65h50l25-43.3h-50Z" style="transform:none;transform-origin:37.5px 21.6506px;fill:rgba(119,119,119,.25);stroke:#fff;transform-box:fill-box" transform="rotate(-90 508.9 -183.9)"/></g><g style="transform:matrix(0,-1,1,0,736.1,400);transform-origin:0 0;transform-box:view-box"><path fill="#77777740" d="M-37.5 21.65h50l25-43.3h-50Z" style="transform:none;transform-origin:37.5px 21.6506px;fill:rgba(119,119,119,.25);stroke:#fff;transform-box:fill-box" transform="rotate(-90 568.05 -168.05)"/></g><g style="transform:matrix(-.866025,-.5,.5,-.866025,822.7,300);transform-origin:0 0;transform-box:view-box"><path fill="#22ab2480" d="M37.5 21.65h-50l-25-43.3h50Z" style="transform:none;transform-origin:37.5px 21.6506px;fill:rgba(34,171,36,.5);stroke:#fff;transform-box:fill-box" transform="rotate(-150 451.542 39.78)"/></g><g style="transform:matrix(-.866025,.5,-.5,-.866025,779.4,375);transform-origin:0 0;transform-box:view-box"><path fill="#fd8c0080" d="M37.5 21.65h-50l-25-43.3h50Z" style="transform:none;transform-origin:37.5px 21.6506px;fill:rgba(253,140,0,.5);stroke:#fff;transform-box:fill-box" transform="rotate(150 339.46 291.92)"/></g><g style="transform:matrix(0,1,-1,0,801.1,337.5);transform-origin:0 0;transform-box:view-box"><path fill="#0f82f2" d="M37.5 21.65h-50l-25-43.3h50Z" style="transform:none;transform-origin:37.5px 21.6506px;fill:#0f82f2;stroke:#fff;transform-box:fill-box" transform="rotate(90 231.8 569.3)"/></g><g style="transform:matrix(0,1,-1,0,736.1,300);transform-origin:0 0;transform-box:view-box"><path fill="#eb342680" d="M37.5 21.65h-50l-25-43.3h50Z" style="transform:none;transform-origin:37.5px 21.6506px;fill:rgba(235,52,38,.5);stroke:#fff;transform-box:fill-box" transform="rotate(90 218.05 518.05)"/></g><g style="transform:matrix(.866025,-.5,.5,.866025,779.4,300);transform-origin:0 0;transform-box:view-box"><path fill="#0f82f2" d="M37.5 21.65h-50l-25-43.3h50Z" style="transform:none;transform-origin:37.5px 21.6506px;fill:#0f82f2;stroke:#fff;transform-box:fill-box" transform="rotate(-30 949.508 -1304.38)"/></g><g style="transform:matrix(0,-1,1,0,757.8,337.5);transform-origin:0 0;transform-box:view-box"><path fill="#0f82f2" d="M-37.5 21.65h50l25-43.3h-50Z" style="transform:none;transform-origin:37.5px 21.6506px;fill:#0f82f2;stroke:#fff;transform-box:fill-box" transform="rotate(-90 547.65 -210.15)"/></g><g style="transform:matrix(-.866025,.5,-.5,-.866025,779.4,275);transform-origin:0 0;transform-box:view-box"><path fill="#fd8c0080" d="M37.5 21.65h-50l-25-43.3h50Z" style="transform:none;transform-origin:37.5px 21.6506px;fill:rgba(253,140,0,.5);stroke:#fff;transform-box:fill-box" transform="rotate(150 352.857 241.92)"/></g><g style="transform:matrix(0,-1,1,0,736.1,350);transform-origin:0 0;transform-box:view-box"><path fill="#22ab2480" d="M-37.5 21.65h50l25-43.3h-50Z" style="transform:none;transform-origin:37.5px 21.6506px;fill:rgba(34,171,36,.5);stroke:#fff;transform-box:fill-box" transform="rotate(-90 543.05 -193.05)"/></g><g style="transform:matrix(0,1,-1,0,822.7,350);transform-origin:0 0;transform-box:view-box"><path fill="#eb342680" d="M37.5 21.65h-50l-25-43.3h50Z" style="transform:none;transform-origin:37.5px 21.6506px;fill:rgba(235,52,38,.5);stroke:#fff;transform-box:fill-box" transform="rotate(90 236.35 586.35)"/></g></g></svg>